<svg width="81" height="64" viewBox="0 0 81 64" fill="none" xmlns="http://www.w3.org/2000/svg">
<path d="M16.6814 0C12.0988 0 8.70776 4.01098 8.85961 8.36078C9.00549 12.5396 8.816 17.9523 7.45349 22.3661C6.0869 26.7928 3.77537 29.5969 0 29.957V34.0216C3.77537 34.3818 6.0869 37.1859 7.45349 41.6129C8.816 46.0267 9.00549 51.4387 8.85961 55.6179C8.70776 59.9671 12.0988 63.9787 16.682 63.9787H63.6383C68.2212 63.9787 71.6113 59.9677 71.4594 55.6179C71.3139 51.4391 71.5031 46.0267 72.8656 41.6129C74.2331 37.1862 76.5384 34.3815 80.3137 34.0216V29.957C76.5384 29.5969 74.2331 26.7928 72.8659 22.3661C71.5031 17.9529 71.3139 12.5399 71.4594 8.36078C71.6113 4.01161 68.2212 0 63.6383 0H16.6814ZM54.4502 39.3829C54.4502 45.3725 49.9827 49.0049 42.5688 49.0049H29.9476C29.5866 49.0048 29.2405 48.8613 28.9853 48.606C28.73 48.3508 28.5867 48.0046 28.5867 47.6436V16.3351C28.5866 16.1563 28.6218 15.9792 28.6902 15.814C28.7586 15.6488 28.8589 15.4987 28.9853 15.3723C29.1117 15.2459 29.2617 15.1456 29.4269 15.0771C29.5921 15.0087 29.7691 14.9735 29.9479 14.9735H42.4966C48.6786 14.9735 52.7357 18.3225 52.7357 23.4638C52.7357 27.0726 50.0063 30.3034 46.5293 30.869V31.0576C51.2631 31.5768 54.4502 34.8549 54.4502 39.3829ZM41.1922 19.2888H33.9962V29.4535H40.0574C44.7426 29.4535 47.3264 27.5667 47.3264 24.1942C47.3264 21.034 45.1043 19.2888 41.1922 19.2888ZM33.9962 33.4867V44.6883H41.4573C46.3351 44.6883 48.9195 42.731 48.9195 39.0522C48.9195 35.3729 46.2632 33.4861 41.1435 33.4861L33.9962 33.4867Z" fill="#7E13F8"/>
</svg>
