<svg width="30" height="64" viewBox="0 0 30 64" fill="none" xmlns="http://www.w3.org/2000/svg">
<path d="M20.5007 7.13322C17.8147 3.94633 15.5016 0.709472 15.0291 0.0373308C15.0179 0.0255347 15.0044 0.0161432 14.9894 0.00972609C14.9744 0.00330895 14.9583 0 14.942 0C14.9257 0 14.9096 0.00330895 14.8947 0.00972609C14.8797 0.0161432 14.8662 0.0255347 14.8549 0.0373308C14.3824 0.709589 12.0694 3.94633 9.38326 7.13322C-13.6721 36.5375 13.0146 56.3812 13.0146 56.3812L13.2383 56.5306C13.4372 59.5929 13.9347 64 13.9347 64H15.9244C15.9244 64 16.4217 59.6179 16.6207 56.5307L16.8446 56.3563C16.8695 56.3813 43.5561 36.5376 20.5007 7.13322ZM14.9295 55.9329C14.9295 55.9329 13.7357 54.9122 13.4124 54.3895V54.3395L14.8549 22.3209C14.8549 22.2214 15.0042 22.2214 15.0042 22.3209L16.4467 54.3395V54.3895C16.1234 54.9122 14.9295 55.933 14.9295 55.933V55.9329Z" fill="#01EC64"/>
</svg>
