<svg width="72" height="64" viewBox="0 0 72 64" fill="none" xmlns="http://www.w3.org/2000/svg">
<path d="M59.0829 20.7225C58.3182 20.4601 57.547 20.217 56.77 19.9935C56.9005 19.4602 57.0206 18.9333 57.1273 18.4157C58.8783 9.91574 57.7336 3.06802 53.8237 0.813425C50.0749 -1.34798 43.9441 0.905776 37.7524 6.29441C37.1422 6.82643 36.5455 7.37379 35.9629 7.93595C35.5729 7.56213 35.1761 7.19556 34.7725 6.83644C28.2832 1.07476 21.7788 -1.35359 17.8731 0.90746C14.1277 3.0756 13.0187 9.51293 14.5951 17.5685C14.7519 18.3663 14.929 19.16 15.1262 19.9489C14.2055 20.2105 13.3171 20.4889 12.4668 20.7854C4.85867 23.438 0 27.5949 0 31.9068C0 36.3601 5.216 40.8269 13.1402 43.5354C13.7826 43.7541 14.4304 43.9567 15.0829 44.1431C14.871 44.9927 14.6829 45.8481 14.5187 46.7082C13.0159 54.624 14.1895 60.9091 17.9248 63.0635C21.7827 65.2884 28.258 63.0018 34.5628 57.4902C35.0741 57.0421 35.5741 56.5813 36.0623 56.1083C36.6932 56.717 37.3409 57.308 38.0048 57.8807C44.1123 63.136 50.144 65.2581 53.8757 63.0978C57.73 60.8665 58.9827 54.1145 57.3564 45.8997C57.2282 45.2562 57.0846 44.6158 56.9255 43.9792C57.3802 43.8444 57.8265 43.7058 58.2616 43.5615C66.4997 40.8322 71.8596 36.4196 71.8596 31.9068C71.8596 27.5792 66.8441 23.3942 59.0829 20.7225ZM57.2963 40.6478C56.9033 40.7778 56.5002 40.9033 56.0893 41.0254C55.1798 38.1462 53.9526 35.0849 52.4505 31.9216C53.8838 28.8339 55.0639 25.8116 55.9478 22.9512C56.6829 23.164 57.3962 23.3883 58.0839 23.6249C64.7338 25.9143 68.7899 29.2988 68.7899 31.9068C68.7899 34.6846 64.4093 38.2908 57.2963 40.6478ZM54.345 46.496C55.0641 50.1282 55.1666 53.4124 54.6902 55.98C54.2625 58.2871 53.4018 59.8251 52.3374 60.4412C50.073 61.7521 45.23 60.0482 40.007 55.5536C39.3896 55.0212 38.787 54.4718 38.2001 53.9059C40.2251 51.6915 42.2487 49.1171 44.2237 46.2579C47.6977 45.9497 50.9797 45.4456 53.9559 44.7576C54.0993 45.3339 54.229 45.9135 54.345 46.496ZM24.4985 60.2147C22.286 60.9959 20.5238 61.0183 19.4585 60.4042C17.1919 59.0969 16.2495 54.0502 17.5349 47.2808C17.6877 46.4809 17.8626 45.6853 18.0595 44.8951C21.0029 45.5463 24.2611 46.0145 27.7432 46.2969C29.7316 49.0947 31.8136 51.6662 33.9119 53.918C33.4659 54.3495 33.0095 54.7699 32.5429 55.1789C29.7547 57.616 26.9608 59.3451 24.4985 60.2147ZM14.1333 40.6307C10.6293 39.4329 7.73558 37.8764 5.75214 36.1779C3.96968 34.6517 3.07004 33.1362 3.07004 31.9068C3.07004 29.2901 6.97095 25.9525 13.4773 23.6842C14.2669 23.4091 15.0933 23.1494 15.9509 22.9058C16.8502 25.8307 18.0298 28.8889 19.4532 31.9814C18.0112 35.1197 16.8149 38.2268 15.9068 41.1862C15.3112 41.0156 14.7199 40.8304 14.1333 40.6307ZM17.6079 16.9788C16.2574 10.0771 17.1542 4.87097 19.4114 3.5643C21.8153 2.17258 27.1312 4.15686 32.7343 9.13202C33.0997 9.45718 33.4591 9.78893 33.8125 10.1271C31.7246 12.3691 29.6618 14.9215 27.6909 17.7027C24.3113 18.016 21.0762 18.519 18.1019 19.1929C17.9186 18.4592 17.7539 17.7208 17.6079 16.9788ZM48.6049 24.6329C47.9024 23.4194 47.1738 22.2212 46.4196 21.0391C48.7124 21.3291 50.9092 21.7139 52.9721 22.1844C52.3528 24.1695 51.5809 26.2447 50.6723 28.3724C50.0081 27.1123 49.3189 25.8655 48.6049 24.6329ZM35.9644 12.3211C37.3802 13.8551 38.7983 15.5677 40.1931 17.4259C37.3636 17.2923 34.5295 17.2917 31.6999 17.4242C33.0961 15.5831 34.5263 13.8728 35.9644 12.3211ZM23.2427 24.654C22.5376 25.8767 21.8612 27.1157 21.214 28.3699C20.3203 26.2498 19.5554 24.165 18.9308 22.1518C20.9811 21.6931 23.1674 21.3181 25.4456 21.0335C24.6831 22.2228 23.9485 23.4302 23.2427 24.654ZM25.511 42.9984C23.1573 42.7357 20.9381 42.38 18.8884 41.9337C19.5228 39.8846 20.3046 37.7555 21.2177 35.5898C21.8675 36.845 22.5467 38.0848 23.2547 39.308C23.9829 40.5656 24.7368 41.7973 25.511 42.9984ZM36.0491 51.7086C34.594 50.1389 33.1427 48.4022 31.7255 46.5344C33.1015 46.5883 34.5041 46.6158 35.9298 46.6158C37.3945 46.6158 38.8424 46.583 40.2675 46.5195C38.8682 48.421 37.4554 50.1602 36.0491 51.7086ZM50.7012 35.4792C51.6618 37.6687 52.4713 39.7866 53.1141 41.8007C51.0307 42.2762 48.7812 42.659 46.4109 42.9434C47.1705 41.7393 47.906 40.5203 48.617 39.287C49.3399 38.0334 50.0348 36.7638 50.7012 35.4792ZM45.9579 37.7532C44.8694 39.6441 43.7197 41.4991 42.5106 43.3153C40.3204 43.4704 38.1255 43.5475 35.9298 43.5463C33.6935 43.5463 31.5183 43.4767 29.4237 43.3409C28.1831 41.5289 27.0114 39.6706 25.9113 37.7701C24.8163 35.8796 23.7938 33.9482 22.8455 31.98C23.7914 30.0114 24.8111 28.0791 25.9023 26.1872L25.902 26.1875C26.9928 24.295 28.1551 22.4447 29.3864 20.6405C31.5234 20.4788 33.7148 20.3946 35.9295 20.3946C38.1544 20.3946 40.3489 20.4797 42.4853 20.6425C43.7042 22.444 44.859 24.2879 45.9478 26.1709C47.0426 28.0587 48.0758 29.9816 49.0456 31.9365C48.0858 33.9115 47.0559 35.8516 45.9579 37.7532ZM52.2905 3.47279C54.6967 4.86058 55.6326 10.4569 54.1207 17.7959C54.0241 18.2641 53.9158 18.741 53.7979 19.2247C50.8163 18.5364 47.5789 18.0247 44.1895 17.7066C42.215 14.8948 40.169 12.3385 38.1151 10.1254C38.6534 9.60655 39.2045 9.10113 39.7679 8.60964C45.0731 3.99293 50.0314 2.17006 52.2905 3.47279ZM35.9298 25.4899C39.4737 25.4899 42.3467 28.3629 42.3467 31.9068C42.3467 35.4506 39.4737 38.3236 35.9298 38.3236C32.386 38.3236 29.513 35.4506 29.513 31.9068C29.513 28.3629 32.386 25.4899 35.9298 25.4899Z" fill="#00D8FF"/>
</svg>
