<svg width="64" height="64" viewBox="0 0 64 64" fill="none" xmlns="http://www.w3.org/2000/svg">
<path d="M49 0H15C6.71573 0 0 6.71573 0 15V49C0 57.2843 6.71573 64 15 64H49C57.2843 64 64 57.2843 64 49V15C64 6.71573 57.2843 0 49 0Z" fill="#CD6799"/>
<mask id="mask0_701_43" style="mask-type:luminance" maskUnits="userSpaceOnUse" x="7" y="13" width="50" height="38">
<path d="M7 13.25H57V50.7272H7V13.25Z" fill="white"/>
</mask>
<g mask="url(#mask0_701_43)">
<path d="M50.0266 34.7908C48.2831 34.7998 46.7681 35.2198 45.4994 35.8403C45.0339 34.9185 44.5684 34.097 44.4861 33.4945C44.3949 32.7918 44.2854 32.3628 44.3949 31.523C44.5044 30.6833 44.9974 29.4878 44.9881 29.3965C44.9791 29.305 44.8786 28.8763 43.8746 28.867C42.8706 28.858 42.0036 29.0588 41.9031 29.3235C41.8026 29.588 41.6111 30.1905 41.4834 30.8113C41.3099 31.724 39.4751 34.9825 38.4256 36.6893C38.0879 36.023 37.7959 35.4388 37.7319 34.9733C37.6406 34.2705 37.5311 33.8415 37.6406 33.0018C37.7501 32.162 38.2431 30.9663 38.2339 30.875C38.2249 30.7838 38.1244 30.3548 37.1204 30.3458C36.1164 30.3365 35.2491 30.5373 35.1489 30.802C35.0484 31.0668 34.9389 31.6875 34.7289 32.2898C34.5191 32.8923 32.0821 38.3323 31.4431 39.7378C31.1849 40.3066 30.9141 40.8695 30.6309 41.4263C30.6309 41.4263 30.6216 41.4538 30.5944 41.4993C30.5053 41.6738 30.4139 41.8473 30.3204 42.0195V42.0288C30.1836 42.2753 30.0374 42.5033 29.9644 42.5033C29.9096 42.5033 29.8094 41.8463 29.9826 40.9518C30.3479 39.0623 31.2149 36.1233 31.2059 36.023C31.2059 35.9683 31.3701 35.457 30.6399 35.1923C29.9279 34.9275 29.6724 35.3658 29.6084 35.3658C29.5446 35.3658 29.4989 35.521 29.4989 35.521C29.4989 35.521 30.2931 32.2168 27.9839 32.2168C26.5416 32.2168 24.5519 33.7958 23.5664 35.2198C22.4457 35.8295 21.3259 36.441 20.2071 37.0543C19.6689 37.3555 19.1121 37.6568 18.5916 37.9398C18.5551 37.9033 18.5186 37.8575 18.4821 37.821C15.6891 34.8363 10.5231 32.728 10.7421 28.721C10.8244 27.2605 11.3264 23.427 20.6636 18.772C28.3489 14.9843 34.4644 16.0338 35.5231 18.3613C37.0381 21.6838 32.2464 27.8538 24.3056 28.7483C21.2751 29.086 19.6871 27.9178 19.2856 27.4798C18.8656 27.0233 18.8016 26.996 18.6464 27.0873C18.3909 27.224 18.5551 27.6348 18.6464 27.872C18.8839 28.4928 19.8604 29.588 21.5124 30.1265C22.9729 30.6013 26.5234 30.866 30.8224 29.2048C35.6326 27.3428 39.3931 22.1673 38.2886 17.832C37.1844 13.4325 29.8824 11.9813 22.9729 14.4365C18.8654 15.897 14.4114 18.197 11.2076 21.1908C7.40136 24.7508 6.79911 27.8448 7.04561 29.1408C7.93086 33.741 14.2744 36.7348 16.8119 38.9528C16.6841 39.0258 16.5654 39.0898 16.4651 39.1445C15.1964 39.7743 10.3589 42.3025 9.15387 44.977C7.78487 48.0073 9.37312 50.1795 10.4226 50.4715C13.6811 51.3753 17.0309 49.7505 18.8291 47.067C20.6271 44.3835 20.4081 40.897 19.5774 39.2998C19.5685 39.2795 19.5561 39.261 19.5409 39.245C19.8696 39.0533 20.2071 38.8525 20.5359 38.6608C21.1399 38.3038 21.7515 37.9599 22.3704 37.6293C22.0601 38.4783 21.8319 39.4913 21.7224 40.9518C21.5856 42.6678 22.2884 44.8948 23.2101 45.771C23.6209 46.1543 24.1046 46.1635 24.4151 46.1635C25.4921 46.1635 25.9759 45.269 26.5144 44.2103C27.1714 42.914 27.7649 41.408 27.7649 41.408C27.7649 41.408 27.0254 45.479 29.0334 45.479C29.7636 45.479 30.5029 44.5298 30.8316 44.046V44.055C30.8316 44.055 30.8499 44.0278 30.8864 43.9638C30.9594 43.845 31.0049 43.772 31.0049 43.772V43.7538C31.2971 43.2428 31.9541 42.0835 32.9309 40.1575C34.1904 37.675 35.4044 34.5718 35.4044 34.5718C35.4044 34.5718 35.5139 35.3293 35.8881 36.5888C36.1071 37.3283 36.5636 38.1405 36.9286 38.9255C36.6366 39.3363 36.4541 39.5643 36.4541 39.5643L36.4631 39.5735C36.2259 39.8838 35.9704 40.2215 35.6874 40.55C34.6924 41.7368 33.5059 43.0968 33.3416 43.4893C33.1499 43.9548 33.1956 44.2923 33.5606 44.5663C33.8254 44.767 34.2999 44.7943 34.7836 44.767C35.6781 44.703 36.3081 44.484 36.6184 44.347C37.1021 44.1738 37.6681 43.909 38.1974 43.5165C39.1741 42.7955 39.7674 41.764 39.7126 40.404C39.6851 39.6555 39.4386 38.9073 39.1376 38.2043C39.2289 38.0765 39.3109 37.9488 39.4021 37.821C40.9449 35.5665 42.1404 33.093 42.1404 33.093C42.1404 33.093 42.2499 33.8505 42.6241 35.1103C42.8066 35.749 43.1809 36.4428 43.5096 37.1183C42.0584 38.2958 41.1639 39.6648 40.8444 40.5593C40.2694 42.2205 40.7166 42.9688 41.5654 43.1423C41.9489 43.2245 42.4964 43.042 42.8981 42.8685C43.4091 42.7043 44.0116 42.4213 44.5866 42.0013C45.5631 41.2803 46.5034 40.2763 46.4486 38.9163C46.4211 38.2958 46.2569 37.684 46.0286 37.0908C47.2609 36.5798 48.8491 36.2968 50.8754 36.534C55.2201 37.0453 56.0781 39.756 55.9136 40.897C55.7494 42.0378 54.8366 42.6585 54.5354 42.8503C54.2344 43.042 54.1339 43.1058 54.1614 43.2428C54.1979 43.4435 54.3439 43.4343 54.5994 43.3978C54.9554 43.334 56.8811 42.476 56.9634 40.3768C57.1004 37.6933 54.5446 34.7633 50.0266 34.7908ZM16.5106 46.0905C15.0686 47.6603 13.0606 48.2538 12.1934 47.7518C11.2624 47.213 11.6274 44.8948 13.3984 43.2335C14.4751 42.2205 15.8626 41.2803 16.7844 40.7053C16.9944 40.5775 17.3046 40.395 17.6789 40.1668C17.7429 40.1303 17.7794 40.112 17.7794 40.112L17.9984 39.975C18.6464 42.3483 18.0256 44.4385 16.5106 46.0905ZM27.0071 38.9528C26.5051 40.176 25.4556 43.3065 24.8166 43.1333C24.2691 42.987 23.9314 40.614 24.7071 38.2683C25.0996 37.0908 25.9301 35.6853 26.4139 35.1375C27.1989 34.2613 28.0659 33.9693 28.2759 34.3253C28.5406 34.7908 27.3176 38.186 27.0071 38.9528ZM35.6691 43.0968C35.4591 43.2063 35.2584 43.2793 35.1671 43.2245C35.1031 43.188 35.2584 43.042 35.2584 43.042C35.2584 43.042 36.3446 41.8735 36.7736 41.3443C37.0199 41.0338 37.3121 40.6688 37.6224 40.258V40.3768C37.6224 41.7733 36.2716 42.7133 35.6691 43.0968ZM42.3504 41.5723C42.1951 41.4628 42.2226 41.0978 42.7429 39.9568C42.9436 39.5095 43.4184 38.7613 44.2306 38.04C44.3219 38.3323 44.3859 38.615 44.3766 38.8798C44.3676 40.6415 43.1079 41.2985 42.3504 41.5723Z" fill="white"/>
</g>
</svg>
