<svg width="64" height="39" viewBox="0 0 64 39" fill="none" xmlns="http://www.w3.org/2000/svg">
<path d="M32 0C23.4665 0 18.135 4.265 16 12.7985C19.199 8.533 22.9335 6.9335 27.199 8C29.6345 8.607 31.375 10.373 33.3025 12.33C36.4395 15.5135 40.0705 19.199 48 19.199C56.533 19.199 61.865 14.9335 64 6.398C60.8005 10.666 57.0665 12.2655 52.8005 11.199C50.3655 10.5915 48.627 8.826 46.697 6.869C43.562 3.6855 39.932 0 32 0ZM16 19.199C7.467 19.199 2.135 23.4645 0 32C3.199 27.732 6.933 26.1325 11.199 27.199C13.6345 27.8065 15.375 29.572 17.3025 31.529C20.4395 34.7125 24.0705 38.398 32 38.398C40.533 38.398 45.865 34.133 48 25.5995C44.8005 29.865 41.0665 31.4645 36.8005 30.398C34.3655 29.791 32.627 28.025 30.697 26.068C27.562 22.8845 23.932 19.199 16 19.199Z" fill="#38BDF8"/>
</svg>
