<svg width="20" height="20" viewBox="0 0 20 20" fill="none" xmlns="http://www.w3.org/2000/svg">
<path d="M3.67573 7.67821L11.1697 8.68771L12.0877 15.9597L17.6332 2.09521L3.67573 7.67821ZM0.65173 8.78371C0.487284 8.76198 0.334682 8.68634 0.217804 8.56863C0.100927 8.45093 0.0263671 8.2978 0.00579266 8.1332C-0.0147817 7.96861 0.0197901 7.80183 0.104098 7.65898C0.188406 7.51613 0.317694 7.40525 0.47173 7.34371L18.7012 0.0537092C18.8375 -0.000846852 18.9868 -0.0142022 19.1307 0.015299C19.2745 0.0448002 19.4065 0.11586 19.5103 0.21967C19.6141 0.32348 19.6851 0.455474 19.7146 0.599288C19.7441 0.743103 19.7308 0.892413 19.6762 1.02871L12.4027 19.2087C12.341 19.3628 12.2298 19.492 12.0867 19.5762C11.9437 19.6603 11.7767 19.6946 11.612 19.6737C11.4473 19.6528 11.2942 19.5778 11.1767 19.4605C11.0593 19.3433 10.984 19.1903 10.9627 19.0257L9.82573 10.0197L0.65173 8.78371Z" fill="#F8F8F8"/>
</svg>
