<svg width="61" height="61" viewBox="0 0 61 61" fill="none" xmlns="http://www.w3.org/2000/svg">
<path d="M0 33.6335L8.17 25.5835L22.08 23.1185L20.705 30.3985L1.9 36.1785L0.685 35.6535L0 33.6335Z" fill="#CA2C31"/>
<path d="M9.58509 27.6485L0.715088 35.7085L7.24009 38.8885L17.1451 33.8335V31.4485L19.1701 25.9885L9.58509 27.6485ZM30.5751 41.8435L26.2901 43.7035L22.2451 52.2785C22.2451 52.2785 25.8051 60.1635 25.9651 60.1635C26.1251 60.1635 28.1501 60.3235 28.1501 60.3235L35.3501 52.2735L37.1701 38.5235L30.5751 41.8435Z" fill="#A02422"/>
<path d="M26.3651 48.1885C26.3651 48.1885 28.7501 47.7035 30.4501 46.8935C32.1501 46.0835 34.2501 44.8735 34.2501 44.8735L33.4801 51.5885L25.9551 60.1535C25.9551 60.1535 25.6601 59.7885 24.4101 57.0685C23.4151 54.8985 23.0701 54.1235 23.0701 54.1235L26.3651 48.1885Z" fill="#CA2C31"/>
<path d="M13.9049 38.0985C13.9049 38.0985 11.0349 37.8585 7.88992 41.8335C5.01992 45.4635 3.67492 51.3735 3.15492 52.8935C2.63492 54.4135 1.38992 54.7235 1.80492 55.4185C2.21992 56.1135 4.01492 56.0735 6.22992 55.7985C8.44492 55.5235 10.3449 54.8285 10.3449 54.8285C10.3449 54.8285 10.2499 55.0685 9.92992 55.5885C9.81492 55.7735 9.41492 56.0385 9.44492 56.3135C9.51492 56.9685 15.1249 56.9835 19.6049 52.3735C24.4449 47.3985 22.0949 43.3185 22.0949 43.3185L13.9049 38.0985Z" fill="#F7D74D"/>
<path d="M14.77 40.4135C14.77 40.4135 11.675 40.5785 9.11503 44.5535C6.55503 48.5285 5.36503 53.1335 5.61003 53.4435C5.85003 53.7535 10.62 52.0285 11.765 52.3735C12.55 52.6135 12.145 53.4085 12.355 53.6185C12.53 53.7935 14.6 54.0885 17.95 50.4585C21.305 46.8285 20.51 41.7285 20.51 41.7285L14.77 40.4135Z" fill="#FBF0B4"/>
<path d="M16.2901 34.9885C16.2901 34.9885 14.7351 36.3735 14.1801 37.1685C13.6251 37.9635 13.6251 38.0335 13.6601 38.2735C13.6951 38.5135 14.2701 41.1485 16.6651 43.4585C19.6051 46.2935 22.2301 46.6735 22.6101 46.6735C22.9901 46.6735 25.5151 43.8385 25.5151 43.8385L16.2901 34.9885Z" fill="#858585"/>
<path d="M23.165 43.3885C23.165 43.3885 25.685 45.0435 29.91 43.6235C35.685 41.6835 39.92 37.3435 45.165 31.8635C50.225 26.5735 54.47 20.0085 54.47 20.0085L51.495 10.0435L23.165 43.3885Z" fill="#437687"/>
<path d="M32.1101 37.9335L32.8051 35.7735L34.5451 36.0185C34.5451 36.0185 35.8701 36.6435 36.8451 37.0985C37.8201 37.5535 39.0751 37.8985 39.0751 37.8985L36.6001 39.9885C36.6001 39.9885 35.2501 39.4785 34.2651 39.0485C33.1551 38.5635 32.1101 37.9335 32.1101 37.9335Z" fill="#3F545F"/>
<path d="M40.2749 5.8385C40.2749 5.8385 35.4649 8.6285 28.5699 15.1535C22.3549 21.0335 17.7499 26.3535 16.6349 30.8785C15.7049 34.6685 16.1999 36.9685 18.3149 39.4535C20.5499 42.0835 23.1699 43.3885 23.1699 43.3885C23.1699 43.3885 25.1399 43.4185 33.3599 37.0935C43.6149 29.1985 51.8299 15.9785 51.8299 15.9785L40.2749 5.8385Z" fill="#8DAFBF"/>
<path d="M50.2049 18.6885C50.2049 18.6885 46.0199 16.9035 43.0349 12.7385C40.0699 8.60347 40.3049 5.80847 40.3049 5.80847C40.3049 5.80847 42.7849 3.86347 48.3599 1.63847C52.1099 0.143468 57.2149 -0.621532 58.8949 0.623468C60.5749 1.86847 57.7449 8.11347 57.7449 8.11347L52.5899 18.0935L50.2049 18.6885Z" fill="#D83F22"/>
<path d="M32.1999 37.9685C32.1999 37.9685 28.5849 36.1235 26.2849 33.4985C21.9349 28.5435 21.0349 23.1035 21.0349 23.1035L23.2199 20.5385C23.2199 20.5385 23.7649 26.3185 28.4299 31.3135C31.4699 34.5685 34.6449 36.0585 34.6449 36.0585C34.6449 36.0585 34.0099 36.5935 33.3299 37.1135C32.8949 37.4485 32.1999 37.9685 32.1999 37.9685Z" fill="#6896A5"/>
<path d="M54.4701 20.0085C54.4701 20.0085 56.6401 17.3935 58.6951 11.4985C61.5651 3.27851 59.0651 0.788513 59.0651 0.788513C59.0651 0.788513 58.2201 4.69851 55.2851 10.1335C52.9301 14.4885 50.0801 18.6335 50.0801 18.6335C50.0801 18.6335 51.6501 19.3385 52.5001 19.5835C53.5701 19.8935 54.4701 20.0085 54.4701 20.0085Z" fill="#A02422"/>
<path d="M18.0201 32.5985C18.6701 33.2185 19.6551 32.5685 20.3001 31.0485C20.9501 29.5285 20.9401 28.6785 20.4401 28.3185C19.8201 27.8685 18.7801 28.8535 18.3251 29.7285C17.8251 30.6985 17.5301 32.1285 18.0201 32.5985ZM40.5901 7.8335C40.5901 7.8335 36.7851 10.5685 32.7251 14.2885C29.0001 17.7035 26.5301 20.3735 26.1901 20.9935C25.8301 21.6585 25.8251 22.5985 26.1051 23.0785C26.3851 23.5585 27.0051 23.8085 27.5701 23.3885C28.1351 22.9635 32.1601 18.5135 35.7951 15.3335C39.1201 12.4235 41.6851 10.5785 41.6851 10.5785C41.6851 10.5785 42.7251 8.7385 42.5551 8.3185C42.3851 7.8935 40.5901 7.8335 40.5901 7.8335Z" fill="#B3E1EE"/>
<path d="M40.5901 7.83352C40.5901 7.83352 43.4001 5.67852 46.4601 4.16352C49.3051 2.75352 52.1351 1.57852 52.6451 2.59852C53.1301 3.56852 49.9601 4.88852 47.1701 6.66852C44.3801 8.44852 41.6951 10.5735 41.6951 10.5735C41.6951 10.5735 41.2851 9.82352 41.0201 9.12852C40.852 8.70547 40.7084 8.27309 40.5901 7.83352Z" fill="#ED6A65"/>
<path d="M42.91 17.3935C40.125 14.8285 36.25 15.5185 34.34 17.7985C32.38 20.1485 32.525 23.7385 34.84 25.8985C36.945 27.8585 40.86 28.3035 43.22 25.5535C45.32 23.1135 45.19 19.4885 42.91 17.3935Z" fill="#E1E1E1"/>
<path d="M35.7799 18.7035C34.1249 20.3285 34.2149 23.5485 36.1849 25.0185C37.9049 26.3035 40.3449 26.2385 41.8749 24.6735C43.4049 23.1085 43.4049 20.2635 41.9699 18.7935C40.3199 17.1085 37.6749 16.8435 35.7799 18.7035Z" fill="#3F545F"/>
<path d="M23.115 36.2135C23.115 36.2135 26.21 33.0735 26.55 33.4135C26.89 33.7535 26.845 35.6585 25.365 37.7785C23.88 39.8985 20.615 43.6735 18.03 46.2185C15.48 48.7235 11.885 51.5885 11.545 51.5385C11.28 51.4985 10.205 50.9635 9.775 50.4435C9.355 49.9285 10.61 47.4935 11.115 46.6885C11.625 45.8835 23.115 36.2135 23.115 36.2135Z" fill="#A02524"/>
<path d="M8.73007 48.6935C8.69007 49.4135 9.79007 50.4635 9.79007 50.4635L26.5501 33.4185C26.5501 33.4185 25.7651 32.5335 23.4551 33.9685C21.1251 35.4185 19.0851 37.1585 16.0751 40.0735C11.8801 44.1435 8.77007 47.9735 8.73007 48.6935Z" fill="#CA2C31"/>
</svg>
